<?xml version="1.0" encoding="UTF-8"?>
<svg width="24px" height="24px" viewBox="0 0 24 24" version="1.1" xmlns="http://www.w3.org/2000/svg" xmlns:xlink="http://www.w3.org/1999/xlink">
    <title>编组 4</title>
    <g id="网页再来一版" stroke="none" stroke-width="1" fill="none" fill-rule="evenodd">
        <g id="8-share" transform="translate(-844.000000, -1479.000000)" fill="#F7B62D" fill-rule="nonzero">
            <g id="编组-4" transform="translate(844.000000, 1479.000000)">
                <path d="M15.736798,4 C16.9808613,4 17.9917062,5.01136897 18,6.26443769 L18,21.7203647 C18,22.9793725 16.9867299,24 15.736798,24 L2.26320201,24 C1.01327005,24 0,22.9793725 0,21.7203647 L0,6.26443769 C0.00829375537,5.01136897 1.01913866,4 2.26320201,4 L15.736798,4 Z M13.8507963,17.8297872 L4.14920369,17.8297872 C3.7325597,17.8297872 3.39480302,18.1699964 3.39480302,18.5896657 C3.39480302,19.0093349 3.7325597,19.3495441 4.14920369,19.3495441 L4.14920369,19.3495441 L13.8507963,19.3495441 C14.2674403,19.3495441 14.605197,19.0093349 14.605197,18.5896657 C14.605197,18.1699964 14.2674403,17.8297872 13.8507963,17.8297872 L13.8507963,17.8297872 Z M13.8507963,13.2401216 L4.14920369,13.2401216 C3.7325597,13.2401216 3.39480302,13.5803307 3.39480302,14 C3.39480302,14.4196693 3.7325597,14.7598784 4.14920369,14.7598784 L4.14920369,14.7598784 L13.8507963,14.7598784 C14.2674403,14.7598784 14.605197,14.4196693 14.605197,14 C14.605197,13.5803307 14.2674403,13.2401216 13.8507963,13.2401216 L13.8507963,13.2401216 Z M13.8507963,8.63525836 L4.14920369,8.63525836 C3.7325597,8.63525836 3.39480302,8.97546752 3.39480302,9.39513678 C3.39480302,9.81480604 3.7325597,10.1550152 4.14920369,10.1550152 L4.14920369,10.1550152 L13.8507963,10.1550152 C14.2674403,10.1550152 14.605197,9.81480604 14.605197,9.39513678 C14.605197,8.97546752 14.2674403,8.63525836 13.8507963,8.63525836 L13.8507963,8.63525836 Z" id="形状结合"></path>
                <path d="M21.736798,0 L8.26320201,0 C7.01327005,0 6,1.02062747 6,2.27963526 L6,4.25531915 L7.50880134,4.25531915 L7.50880134,2.27963526 C7.50880134,1.859966 7.84655803,1.51975684 8.26320201,1.51975684 L21.736798,1.51975684 C22.153442,1.51975684 22.4911987,1.859966 22.4911987,2.27963526 L22.4911987,17.7355623 C22.49124,17.9357255 22.4112807,18.1274781 22.2693521,18.267578 C22.1274235,18.407678 21.9354769,18.4843281 21.736798,18.4802432 L17.8591785,18.4802432 L17.8591785,20 L21.736798,20 C22.9808613,20 23.9917062,18.988631 24,17.7355623 L24,2.27963526 C24,1.02062747 22.9867299,0 21.736798,0 Z" id="路径"></path>
            </g>
        </g>
    </g>
</svg>