<?xml version="1.0" encoding="UTF-8"?>
<svg width="20px" height="20px" viewBox="0 0 20 20" version="1.1" xmlns="http://www.w3.org/2000/svg" xmlns:xlink="http://www.w3.org/1999/xlink">
    <title>编组</title>
    <g id="网站深色版" stroke="none" stroke-width="1" fill="none" fill-rule="evenodd">
        <g id="20从订单进入购买" transform="translate(-971.000000, -233.000000)" fill-rule="nonzero">
            <g id="编组" transform="translate(981.000000, 243.000000) scale(-1, 1) translate(-981.000000, -243.000000) translate(971.000000, 233.000000)">
                <path d="M9.99973811,0 C4.47693108,0 0,4.47695539 0,10.0000238 C0,15.5230684 4.47693106,20 9.99973811,20 C15.5230689,20 20,15.5230684 20,10.0000238 C20,4.47695539 15.5230928,0 9.99973811,0 Z" id="路径" fill="#6875FD"></path>
                <path d="M12.1743944,14.318178 C12.4120123,14.554536 12.4356313,14.913153 12.228418,15.1197253 C12.0206571,15.3262977 11.6591826,15.3021028 11.4216123,15.0663158 L6.77084871,10.4711934 C6.63611126,10.3370629 6.57237348,10.1644395 6.57851631,10.0020222 C6.57132588,9.83815366 6.63511128,9.6639601 6.77037253,9.52883043 L11.4216123,4.93370795 C11.6591826,4.69734998 12.0201571,4.6737023 12.228418,4.88027463 C12.4356313,5.08682318 12.4120361,5.44548779 12.1743944,5.68182195 L7.80191523,10.0000238 L12.1743944,14.318178 Z" id="路径" stroke="#FFFFFF" stroke-width="1.11111111" fill="#FFFFFF"></path>
            </g>
        </g>
    </g>
</svg>