<?xml version="1.0" encoding="UTF-8"?>
<svg width="32px" height="21px" viewBox="0 0 32 21" version="1.1" xmlns="http://www.w3.org/2000/svg" xmlns:xlink="http://www.w3.org/1999/xlink">
    <title>显示</title>
    <g id="网站深色版" stroke="none" stroke-width="1" fill="none" fill-rule="evenodd">
        <g id="4我的-Original" transform="translate(-981.000000, -228.000000)" fill="#979797" fill-rule="nonzero">
            <g id="显示" transform="translate(981.000000, 228.000000)">
                <path d="M15.9833507,0 C8.99063476,0 2.26430801,4.3640625 0,10.5 C2.26430801,16.6359375 8.99063476,21 15.9833507,21 C22.942768,21 29.735692,16.6359375 32,10.5 C29.7023933,4.3640625 22.942768,0 15.9833507,0 Z M15.9833507,17.0625 C12.3204995,17.0625 9.32362123,14.109375 9.32362123,10.5 C9.32362123,6.890625 12.3204995,3.9375 15.9833507,3.9375 C19.6462019,3.9375 22.6430801,6.890625 22.6430801,10.5 C22.6430801,14.109375 19.6462019,17.0625 15.9833507,17.0625 Z M19.9791883,10.5 C19.9791883,12.665625 18.1810614,14.4375 15.9833507,14.4375 C13.78564,14.4375 11.987513,12.665625 11.987513,10.5 C11.987513,8.334375 13.78564,6.5625 15.9833507,6.5625 C18.1810614,6.5625 19.9791883,8.334375 19.9791883,10.5 Z" id="形状"></path>
            </g>
        </g>
    </g>
</svg>