<?xml version="1.0" encoding="UTF-8"?>
<svg width="32px" height="17px" viewBox="0 0 32 17" version="1.1" xmlns="http://www.w3.org/2000/svg" xmlns:xlink="http://www.w3.org/1999/xlink">
    <title>隐藏</title>
    <g id="网站深色版" stroke="none" stroke-width="1" fill="none" fill-rule="evenodd">
        <g id="4我的-Original" transform="translate(-971.000000, -560.000000)" fill="#979797" fill-rule="nonzero">
            <g id="隐藏" transform="translate(971.000000, 560.000000)">
                <path d="M25.6339748,7.48166338 L28.5316512,11.7375755 C29.0213925,12.4568464 28.8430079,13.4422815 28.1332164,13.9385874 C27.4234593,14.4348585 26.4510927,14.2540828 25.9613514,13.534812 L22.6530362,8.67574492 C21.0416613,9.17929721 19.3295949,9.5023176 17.56139,9.62254445 L17.56139,15.4177157 C17.56139,16.2915987 16.8623243,17 16,17 C15.1376757,17 14.43861,16.2915987 14.43861,15.4177157 L14.43861,9.62254445 C12.6704051,9.5023176 10.9583387,9.17929721 9.34696384,8.67574492 L6.03864863,13.534812 C5.54890728,14.2540828 4.57654072,14.4348585 3.86678361,13.9385874 C3.15699212,13.4422815 2.97860746,12.4568464 3.4683488,11.7375755 L6.36602521,7.48166338 C3.91566836,6.26343893 1.82820001,4.57883461 0.312600775,2.53212137 C-0.20495194,1.83312642 -0.0654138156,0.84131585 0.624301237,0.31679093 C1.31405067,-0.207699152 2.29274268,-0.0662906338 2.81032977,0.63266948 C5.4613135,4.21275412 10.4518211,6.51082545 16,6.51082545 C21.5481789,6.51082545 26.5386865,4.21275412 29.1896702,0.63266948 C29.7072573,-0.0662906338 30.6859493,-0.207699152 31.3756988,0.31679093 C32.0654138,0.84131585 32.2049519,1.83312642 31.6873992,2.53212137 C30.1718,4.57886945 28.0843316,6.26343893 25.6339748,7.48166338 Z" id="路径"></path>
            </g>
        </g>
    </g>
</svg>