<?xml version="1.0" encoding="UTF-8"?>
<svg width="20px" height="23px" viewBox="0 0 20 23" version="1.1" xmlns="http://www.w3.org/2000/svg" xmlns:xlink="http://www.w3.org/1999/xlink">
    <title>shou</title>
    <g id="网站深色版" stroke="none" stroke-width="1" fill="none" fill-rule="evenodd">
        <g id="12-More" transform="translate(-622.000000, -116.000000)" fill="#979797" fill-rule="nonzero">
            <g id="shou" transform="translate(622.000000, 116.000000)">
                <path d="M18.8234596,0 C19.6078199,0 20,0.383426829 20,1.15 L20,21.85 C20,22.6165732 19.6078199,23 18.8234596,23 C18.0390993,23 17.6469192,22.6165732 17.6469192,21.85 L17.6469192,1.15 C17.6471985,0.383426829 18.0393786,0 18.8234596,0 M12.5868456,21.055378 L2.42060901,11.5 L12.5868456,1.94462195 C12.8117067,1.73509756 12.9399195,1.44479268 12.9413161,1.14102439 C12.9413161,0.127341463 11.6371216,-0.380341463 10.8751078,0.337426829 L0.709150521,9.89112195 C-0.236383507,10.7797073 -0.236383507,12.2202927 0.709150521,13.108878 L10.8751078,22.6642561 C11.637401,23.3811829 12.9413161,22.8735 12.9413161,21.8606585 C12.9401988,21.5563293 12.8122654,21.2654634 12.5868456,21.055378" id="形状"></path>
            </g>
        </g>
    </g>
</svg>