<?xml version="1.0" encoding="UTF-8"?>
<svg width="22px" height="20px" viewBox="0 0 22 20" version="1.1" xmlns="http://www.w3.org/2000/svg" xmlns:xlink="http://www.w3.org/1999/xlink">
    <title>编组</title>
    <g id="网站深色版" stroke="none" stroke-width="1" fill="none" fill-rule="evenodd">
        <g id="12-More" transform="translate(-378.000000, -117.000000)" fill="#979797" fill-rule="nonzero">
            <g id="编组" transform="translate(389.000000, 127.000000) rotate(-270.000000) translate(-389.000000, -127.000000) translate(379.000000, 116.000000)">
                <path d="M18.4615385,14.3 L18.4615385,0.785714295 C18.4615385,0.314285727 18.1538462,1.20494489e-13 17.6923077,1.20494489e-13 C17.2307692,1.20494489e-13 16.9230769,0.314285705 16.9230769,0.785714295 L16.9230769,14.3 C16,14.6142857 15.3846154,15.5571429 15.3846154,16.5 C15.3846154,17.4428571 16,18.3857143 16.9230769,18.7 L16.9230769,21.2142857 C16.9230769,21.6857143 17.2307692,22 17.6923077,22 C18.1538461,22 18.4615385,21.6857143 18.4615385,21.2142857 L18.4615385,18.7 C19.3846154,18.3857143 20,17.4428571 20,16.5 C20,15.4 19.3846154,14.6142857 18.4615385,14.3 Z M17.6923077,17.2857143 C17.2307692,17.2857143 16.9230769,16.9714286 16.9230769,16.5 C16.9230769,16.0285714 17.2307692,15.7142857 17.6923077,15.7142857 C18.1538461,15.7142857 18.4615385,16.0285714 18.4615385,16.5 C18.4615385,16.9714286 18.1538462,17.2857143 17.6923077,17.2857143 Z M3.07692307,14.3 L3.07692307,0.785714295 C3.07692307,0.314285727 2.76923077,1.20494489e-13 2.30769231,1.20494489e-13 C1.84615385,1.20494489e-13 1.53846154,0.314285705 1.53846154,0.785714295 L1.53846154,14.3 C0.615384618,14.6142857 0,15.4 0,16.5 C0,17.4428571 0.615384618,18.3857143 1.53846154,18.7 L1.53846154,21.2142857 C1.53846154,21.6857143 1.84615383,22 2.30769231,22 C2.76923079,22 3.07692309,21.6857143 3.07692307,21.2142857 L3.07692307,18.7 C4,18.3857143 4.61538461,17.4428571 4.61538461,16.5 C4.61538461,15.4 4,14.6142857 3.07692307,14.3 Z M2.30769231,17.2857143 C1.84615385,17.2857143 1.53846154,16.9714286 1.53846154,16.5 C1.53846154,16.0285714 1.84615383,15.7142857 2.30769231,15.7142857 C2.76923079,15.7142857 3.07692307,16.0285714 3.07692307,16.5 C3.07692307,16.9714286 2.76923077,17.2857143 2.30769231,17.2857143 L2.30769231,17.2857143 Z M10.7692308,3.3 L10.7692308,0.785714295 C10.7692308,0.314285727 10.4615385,1.20494489e-13 9.99999999,1.20494489e-13 C9.53846151,1.20494489e-13 9.23076923,0.314285705 9.23076923,0.785714295 L9.23076923,3.3 C8.30769232,3.61428571 7.6923077,4.55714286 7.6923077,5.5 C7.6923077,6.44285714 8.30769232,7.38571429 9.23076923,7.7 L9.23076923,21.2142857 C9.23076923,21.6857143 9.53846153,22 9.99999999,22 C10.4615384,22 10.7692308,21.6857143 10.7692308,21.2142857 L10.7692308,7.7 C11.6923077,7.38571429 12.3076923,6.44285714 12.3076923,5.5 C12.3076923,4.55714286 11.6923077,3.61428571 10.7692308,3.3 Z M9.99999999,6.28571429 C9.53846153,6.28571429 9.23076923,5.97142859 9.23076923,5.5 C9.23076923,5.02857141 9.53846153,4.71428571 9.99999999,4.71428571 C10.4615384,4.71428571 10.7692308,5.02857141 10.7692308,5.5 C10.7692308,5.97142859 10.4615385,6.28571429 9.99999999,6.28571429 L9.99999999,6.28571429 Z" id="形状"></path>
            </g>
        </g>
    </g>
</svg>