<?xml version="1.0" encoding="UTF-8"?>
<svg width="20px" height="18px" viewBox="0 0 20 18" version="1.1" xmlns="http://www.w3.org/2000/svg" xmlns:xlink="http://www.w3.org/1999/xlink">
    <title>编组</title>
    <g id="网站深色版" stroke="none" stroke-width="1" fill="none" fill-rule="evenodd">
        <g id="28swap" transform="translate(-1175.000000, -634.000000)" fill="#F7B62D" fill-rule="nonzero">
            <g id="编组" transform="translate(1175.000000, 634.000000)">
                <path d="M12.1160696,18 L1,18 C0.448660646,18 0,17.5611635 0,17.0218967 L0,2.95292883 C0,1.32421219 1.35491051,0.00115282407 3.01785668,0.00115282407 L10.0982127,0.00115282407 C11.7633911,0.00115282407 13.1160694,1.32639545 13.1160694,2.95292883 L13.1160694,17.0218967 C13.1160694,17.5611635 12.6696409,18 12.1160696,18 L12.1160696,18 Z M1.99999969,16.0437934 L11.1160697,16.0437934 L11.1160697,2.95292883 C11.1160697,2.40274573 10.6584805,1.95735941 10.0982127,1.95735941 L3.01785668,1.95735941 C2.45535677,1.95735941 1.99999969,2.40492899 1.99999969,2.95292883 L1.99999969,16.0437934 Z" id="形状"></path>
                <path d="M17.2790152,18 C15.7790154,18 14.5580335,16.8057533 14.5580335,15.3385984 L14.5580335,10.6685918 C14.5580335,10.2799704 14.2343728,9.96339684 13.8370515,9.96339684 L12.1160697,9.96339684 C11.5647304,9.96339684 11.1160697,9.52456032 11.1160697,8.98529355 C11.1160697,8.44602678 11.5647304,8.00719026 12.1160697,8.00719026 L13.8370515,8.00719026 C15.3370512,8.00719026 16.5580332,9.20143691 16.5580332,10.6685918 L16.5580332,15.3385984 C16.5580332,15.7272198 16.8816938,16.0437934 17.2790152,16.0437934 C17.6763366,16.0437934 17.9999972,15.7272198 17.9999972,15.3385984 L17.9999972,5.90252157 L14.7522299,1.55563841 C14.4263371,1.11898516 14.5223192,0.5076706 14.9687477,0.188913724 C15.4151762,-0.129843152 16.0401761,-0.0359627026 16.3660689,0.400690553 L19.8080327,5.00519913 C19.9330327,5.17331063 20,5.37417113 20,5.58158142 L20,15.3364151 C20.0022291,16.8057533 18.7812471,18 17.2790152,18 Z" id="路径"></path>
                <path d="M17.6450867,7.13388375 C17.0937474,7.13388375 16.6450867,6.69504723 16.6450867,6.15578045 L16.6450867,3.85243453 C16.6450867,3.31316776 17.0937474,2.87433124 17.6450867,2.87433124 C18.1964258,2.87433124 18.6450867,3.31316776 18.6450867,3.85243453 L18.6450867,6.15578045 C18.6450867,6.69504723 18.1964258,7.13388375 17.6450867,7.13388375 Z M12.1160696,7.13388375 L4.05133882,7.13388375 C3.49999947,7.13388375 3.05133882,6.69504723 3.05133882,6.15578045 C3.05133882,5.61651368 3.49999947,5.17767716 4.05133882,5.17767716 L12.1160696,5.17767716 C12.6674088,5.17767716 13.1160694,5.61651368 13.1160694,6.15578045 C13.1160694,6.69504723 12.6696409,7.13388375 12.1160696,7.13388375 Z" id="形状"></path>
            </g>
        </g>
    </g>
</svg>