<?xml version="1.0" encoding="UTF-8"?>
<svg width="18px" height="18px" viewBox="0 0 18 18" version="1.1" xmlns="http://www.w3.org/2000/svg" xmlns:xlink="http://www.w3.org/1999/xlink">
    <title>编组</title>
    <g id="网站深色版" stroke="none" stroke-width="1" fill="none" fill-rule="evenodd">
        <g id="28swap" transform="translate(-579.000000, -633.000000)" fill="#979797" fill-rule="nonzero">
            <g id="编组" transform="translate(579.000000, 633.000000)">
                <path d="M9,18 C4.02975,18 0,13.97025 0,9 C0,4.02975 4.02975,0 9,0 C13.97025,0 18,4.02975 18,9 C18,13.97025 13.97025,18 9,18 Z M8.99999999,16.5 C13.14225,16.5 16.5,13.14225 16.5,8.99999999 C16.5,4.85775 13.14225,1.49999999 8.99999999,1.49999999 C4.85775,1.49999999 1.49999999,4.85775 1.49999999,8.99999999 C1.49999999,13.14225 4.85775,16.5 8.99999999,16.5 Z M8.24999999,8.24999999 C8.24999999,7.83578643 8.58578643,7.49999999 9,7.49999999 C9.41421357,7.49999999 9.74999999,7.83578643 9.74999999,8.24999999 L9.74999999,13.5 C9.74999999,13.9142136 9.41421357,14.25 9,14.25 C8.58578643,14.25 8.24999999,13.9142136 8.24999999,13.5 L8.24999999,8.24999999 L8.24999999,8.24999999 Z M8.92499999,5.85 C8.34510101,5.85 7.87499999,5.37989899 7.87499999,4.8 C7.87499999,4.22010101 8.34510101,3.74999999 8.92499999,3.74999999 C9.50489898,3.74999999 9.975,4.22010101 9.975,4.8 C9.975,5.37989899 9.50489898,5.85 8.92499999,5.85 L8.92499999,5.85 Z" id="形状"></path>
            </g>
        </g>
    </g>
</svg>