<?xml version="1.0" encoding="UTF-8"?>
<svg width="25px" height="25px" viewBox="0 0 25 25" version="1.1" xmlns="http://www.w3.org/2000/svg" xmlns:xlink="http://www.w3.org/1999/xlink">
    <title>编组 11</title>
    <g id="网站深色版" stroke="none" stroke-width="1" fill="none" fill-rule="evenodd">
        <g id="3-nfts" transform="translate(-1704.000000, -28.000000)" fill="#B4B4B4" fill-rule="nonzero">
            <g id="编组-10" transform="translate(1704.000000, 28.000000)">
                <g id="语言">
                    <path d="M12.5,0 C19.4036458,0 25,5.59635417 25,12.5 C25,19.4036458 19.4036458,25 12.5,25 C5.59635417,25 0,19.4036458 0,12.5 C0,5.59635417 5.59635417,0 12.5,0 Z M16.6442708,13.5416667 L8.35572917,13.5416667 C8.5859375,18.8588542 10.5484375,22.9166667 12.5,22.9166667 C14.4510417,22.9166667 16.4140625,18.8588542 16.6442708,13.5416667 Z M6.2703125,13.5416667 L2.13489583,13.5421875 C2.5171875,17.3890625 4.9921875,20.6203125 8.40572917,22.08125 C7.178125,19.9880208 6.40208335,16.9458333 6.2703125,13.5421875 L6.2703125,13.5416667 Z M22.8651042,13.5421875 L18.7296875,13.5421875 C18.5979167,16.9463542 17.821875,19.9880208 16.5942708,22.0807292 C20.0078125,20.6208333 22.4828125,17.3890625 22.8651042,13.5421875 L22.8651042,13.5421875 Z M8.40625,2.91927083 L8.290625,2.96927083 C4.9359375,4.45260417 2.5125,7.6546875 2.13541667,11.4583333 L6.27083333,11.4583333 C6.40260415,8.05416665 7.17864583,5.01197915 8.40625,2.91927083 Z M12.5,2.08333333 L12.421875,2.08541667 C10.496875,2.19166667 8.58333333,6.2125 8.35572917,11.4583333 L16.6442708,11.4583333 C16.4140625,6.14166667 14.4515625,2.08333333 12.5,2.08333333 Z M16.5942708,2.91875 L16.6708333,3.0515625 C17.8541667,5.1390625 18.6005208,8.125 18.7291667,11.4583333 L22.8645833,11.4583333 C22.4828125,7.6109375 20.0072917,4.3796875 16.59375,2.91875 L16.5942708,2.91875 Z" id="形状"></path>
                </g>
                <g id="语言">
                    <path d="M12.5,0 C19.4036458,0 25,5.59635417 25,12.5 C25,19.4036458 19.4036458,25 12.5,25 C5.59635417,25 0,19.4036458 0,12.5 C0,5.59635417 5.59635417,0 12.5,0 Z M16.6442708,13.5416667 L8.35572917,13.5416667 C8.5859375,18.8588542 10.5484375,22.9166667 12.5,22.9166667 C14.4510417,22.9166667 16.4140625,18.8588542 16.6442708,13.5416667 Z M6.2703125,13.5416667 L2.13489583,13.5421875 C2.5171875,17.3890625 4.9921875,20.6203125 8.40572917,22.08125 C7.178125,19.9880208 6.40208335,16.9458333 6.2703125,13.5421875 L6.2703125,13.5416667 Z M22.8651042,13.5421875 L18.7296875,13.5421875 C18.5979167,16.9463542 17.821875,19.9880208 16.5942708,22.0807292 C20.0078125,20.6208333 22.4828125,17.3890625 22.8651042,13.5421875 L22.8651042,13.5421875 Z M8.40625,2.91927083 L8.290625,2.96927083 C4.9359375,4.45260417 2.5125,7.6546875 2.13541667,11.4583333 L6.27083333,11.4583333 C6.40260415,8.05416665 7.17864583,5.01197915 8.40625,2.91927083 Z M12.5,2.08333333 L12.421875,2.08541667 C10.496875,2.19166667 8.58333333,6.2125 8.35572917,11.4583333 L16.6442708,11.4583333 C16.4140625,6.14166667 14.4515625,2.08333333 12.5,2.08333333 Z M16.5942708,2.91875 L16.6708333,3.0515625 C17.8541667,5.1390625 18.6005208,8.125 18.7291667,11.4583333 L22.8645833,11.4583333 C22.4828125,7.6109375 20.0072917,4.3796875 16.59375,2.91875 L16.5942708,2.91875 Z" id="形状"></path>
                </g>
            </g>
        </g>
    </g>
</svg>