<?xml version="1.0" encoding="UTF-8"?>
<svg width="50px" height="50px" viewBox="0 0 50 50" version="1.1" xmlns="http://www.w3.org/2000/svg" xmlns:xlink="http://www.w3.org/1999/xlink">
    <title>编组 2</title>
    <g id="网站深色版" stroke="none" stroke-width="1" fill="none" fill-rule="evenodd">
        <g id="32系统消息" transform="translate(-396.000000, -279.000000)">
            <g id="编组-2" transform="translate(396.000000, 279.000000)">
                <circle id="椭圆形" fill="#3C3C3C" cx="25" cy="25" r="25"></circle>
                <path d="M37.8539813,33.5785043 C36.8150055,32.8867879 36.0271614,31.8889433 35.5123742,30.6126969 C35.1025635,29.5967698 34.9571714,28.5917266 34.9571714,28.0397795 L34.9571714,23.4503349 L34.98881,23.4503349 C34.98881,19.1490394 32.2308008,15.487727 28.3750136,14.1131806 L28.3750136,12.4906799 C28.3750136,10.6578022 26.8731143,9.16666667 25.0270059,9.16666667 C23.1808975,9.16666667 21.6789982,10.6578022 21.6789982,12.4906799 L21.6789982,14.0934104 C17.7936539,15.4522164 15.0086199,19.1280636 15.0086199,23.4503349 L15.042687,23.4503349 L15.042687,28.039745 C15.042687,28.5916922 14.8972949,29.5967353 14.4875189,30.6126625 C13.9727316,31.8889433 13.1848876,32.8867535 12.1459117,33.5784698 C11.7505193,33.8417814 11.5750082,34.3307959 11.71359,34.7830178 C11.8521719,35.2352398 12.2722628,35.5443409 12.7483644,35.5444004 L19.5305534,35.5444004 C20.0307355,38.0804295 22.2859261,40 24.9845435,40 C27.6831609,40 29.9383862,38.0804295 30.4385683,35.5444004 L37.251598,35.5444004 C37.7277195,35.5443876 38.1478462,35.2352833 38.2864215,34.7830387 C38.4249967,34.3307942 38.2494309,33.8417666 37.8539813,33.5785043 L37.8539813,33.5785043 Z M23.8424298,12.4906799 C23.8424298,11.8421894 24.3738343,11.3145934 25.0270059,11.3145934 C25.6801775,11.3145934 26.211582,11.8421894 26.211582,12.4906799 L26.211582,13.6048037 C25.8091317,13.5563036 25.4041018,13.5319427 24.9986976,13.5318537 C24.6075509,13.5318537 24.2218508,13.5549304 23.8423951,13.5983629 L23.8423951,12.4906799 L23.8424298,12.4906799 Z M24.9845435,37.7935548 C23.519556,37.7935548 22.2721189,36.8508877 21.8252923,35.5444349 L28.1438641,35.5444349 C27.6970028,36.8508532 26.4495657,37.7935548 24.9845435,37.7935548 L24.9845435,37.7935548 Z M15.3963322,33.3965081 C15.835145,32.7984075 16.2048871,32.1326267 16.4958794,31.4111862 C17.1549139,29.7773193 17.2061186,28.417549 17.2061186,28.0397106 L17.2061186,23.1714164 C17.3540778,19.024735 20.7859695,15.7080581 24.9986976,15.7080581 C29.2331773,15.7080581 32.6791884,19.0589712 32.7937398,23.235618 L32.7937398,28.039745 C32.7937398,28.4175834 32.8449445,29.7773538 33.503979,31.4112206 C33.7949713,32.1326267 34.1647133,32.7984075 34.6035262,33.3965081 L15.3963322,33.3965081 L15.3963322,33.3965081 Z" id="形状" fill="#F7B62D" fill-rule="nonzero"></path>
            </g>
        </g>
    </g>
</svg>