<?xml version="1.0" encoding="UTF-8"?>
<svg width="6px" height="24px" viewBox="0 0 6 24" version="1.1" xmlns="http://www.w3.org/2000/svg" xmlns:xlink="http://www.w3.org/1999/xlink">
    <title>更多</title>
    <g id="网站深色版" stroke="none" stroke-width="1" fill="none" fill-rule="evenodd">
        <g id="28" transform="translate(-1515.000000, -682.000000)" fill="#979797">
            <path d="M1518,688 C1519.65685,688 1521,686.656854 1521,685 C1521,683.343146 1519.65685,682 1518,682 C1516.34315,682 1515,683.343146 1515,685 C1515,686.656854 1516.34315,688 1518,688 Z M1518,697 C1519.65685,697 1521,695.656854 1521,694 C1521,692.343146 1519.65685,691 1518,691 C1516.34315,691 1515,692.343146 1515,694 C1515,695.656854 1516.34315,697 1518,697 Z M1518,706 C1519.65685,706 1521,704.656854 1521,703 C1521,701.343146 1519.65685,700 1518,700 C1516.34315,700 1515,701.343146 1515,703 C1515,704.656854 1516.34315,706 1518,706 Z" id="更多"></path>
        </g>
    </g>
</svg>