<?xml version="1.0" encoding="UTF-8"?>
<svg width="30px" height="27px" viewBox="0 0 30 27" version="1.1" xmlns="http://www.w3.org/2000/svg" xmlns:xlink="http://www.w3.org/1999/xlink">
    <title>编组</title>
    <g id="网站深色版" stroke="none" stroke-width="1" fill="none" fill-rule="evenodd">
        <g id="24查看已购买订单-已开奖未中奖" transform="translate(-1391.000000, -174.000000)" fill="#F7B62D" fill-rule="nonzero">
            <g id="编组" transform="translate(1391.000000, 174.000000)">
                <polygon id="路径" points="7.5 13.5838509 22.5 13.5838509 22.5 27 7.5 27"></polygon>
                <path d="M28.5,5.96273292 L25.5,5.96273292 L25.5,1.49068323 C25.5,1.09532946 25.3419647,0.716168344 25.0606602,0.436611009 C24.7793556,0.157053675 24.3978247,0 24,0 L6,0 C5.17157288,0 4.5,0.667401615 4.5,1.49068323 L4.5,5.96273292 L1.5,5.96273292 C0.671572875,5.96273292 0,6.63013453 0,7.45341615 L0,22.3602484 C0,23.1835301 0.671572875,23.8509317 1.5,23.8509317 L6,23.8509317 L6,20.8695652 L3,20.8695652 L3,8.94409938 L27,8.94409938 L27,20.8695652 L24,20.8695652 L24,23.8509317 L28.5,23.8509317 C29.3284271,23.8509317 30,23.1835301 30,22.3602484 L30,7.45341615 C30,6.63013453 29.3284271,5.96273292 28.5,5.96273292 Z M7.5,2.98136646 L22.5,2.98136646 L22.5,5.96273292 L7.5,5.96273292 L7.5,2.98136646 Z" id="形状"></path>
            </g>
        </g>
    </g>
</svg>