<?xml version="1.0" encoding="UTF-8"?>
<svg width="32px" height="32px" viewBox="0 0 32 32" version="1.1" xmlns="http://www.w3.org/2000/svg" xmlns:xlink="http://www.w3.org/1999/xlink">
    <title>形状</title>
    <g id="网站深色版" stroke="none" stroke-width="1" fill="none" fill-rule="evenodd">
        <g id="28swap" transform="translate(-1310.000000, -218.000000)" fill="#F7B62D" fill-rule="nonzero">
            <path d="M1328.73724,220.285714 L1329.16551,223.257143 L1329.33682,224.485714 L1330.45032,225 C1330.90714,225.228571 1331.39251,225.485714 1331.82078,225.771429 L1332.82007,226.428571 L1333.93357,226 L1336.8458,224.857143 L1339.55817,229.4 L1337.15987,231.228571 L1336.16057,232 L1336.27478,233.257143 C1336.30333,233.514286 1336.30333,233.771429 1336.30333,234 C1336.30333,234.228571 1336.30333,234.485714 1336.27478,234.742857 L1336.16057,236 L1337.15987,236.771429 L1339.55817,238.6 L1336.87435,243.142857 L1333.93357,242 L1332.82007,241.571429 L1331.82078,242.228571 C1331.36396,242.542857 1330.90714,242.8 1330.45032,243 L1329.33682,243.514286 L1329.16551,244.714286 L1328.73724,247.714286 L1323.2554,247.714286 L1322.82713,244.742857 L1322.65582,243.514286 L1321.54232,243 C1321.0855,242.771429 1320.60013,242.514286 1320.17186,242.228571 L1319.17257,241.571429 L1318.05907,242 L1315.14684,243.142857 L1312.43447,238.6 L1314.83278,236.771429 L1315.83207,236 L1315.71787,234.742857 C1315.68932,234.485714 1315.68932,234.228571 1315.68932,234 C1315.68932,233.771429 1315.68932,233.514286 1315.71787,233.257143 L1315.83207,232 L1314.83278,231.228571 L1312.43447,229.4 L1315.11829,224.857143 L1318.05907,226 L1319.17257,226.428571 L1320.17186,225.771429 C1320.62868,225.457143 1321.0855,225.2 1321.54232,225 L1322.65582,224.485714 L1322.82713,223.285714 L1323.2554,220.285714 L1328.73724,220.285714 M1329.05131,218 L1322.94134,218 C1321.97059,218 1321.17116,218.685714 1321.0284,219.6 L1320.57158,222.914286 C1320.00056,223.171429 1319.45808,223.485714 1318.88706,223.857143 L1315.66076,222.6 C1315.43235,222.514286 1315.20394,222.485714 1314.97553,222.485714 C1314.2903,222.485714 1313.63362,222.828571 1313.31956,223.428571 L1310.26457,228.571429 C1309.7792,229.371429 1309.97906,230.428571 1310.7214,231 L1313.43377,233.057143 C1313.40521,233.4 1313.37666,233.714286 1313.37666,234 C1313.37666,234.285714 1313.37666,234.6 1313.43377,234.942857 L1310.7214,237 C1309.97906,237.571429 1309.7792,238.571429 1310.26457,239.428571 L1313.29101,244.542857 C1313.63362,245.142857 1314.2903,245.514286 1314.97553,245.514286 C1315.20394,245.514286 1315.4038,245.485714 1315.63221,245.4 L1318.85851,244.142857 C1319.40098,244.514286 1319.97201,244.828571 1320.54303,245.085714 L1321.0284,248.371429 C1321.14261,249.285714 1321.97059,250 1322.94134,250 L1329.05131,250 C1330.02205,250 1330.82149,249.314286 1330.96424,248.4 L1331.44961,245.085714 C1332.02064,244.828571 1332.56311,244.514286 1333.13414,244.142857 L1336.36043,245.4 C1336.58884,245.485714 1336.81725,245.514286 1337.04566,245.514286 C1337.73089,245.514286 1338.38757,245.171429 1338.70164,244.571429 L1341.75662,239.4 C1342.21344,238.571429 1342.01358,237.571429 1341.27125,237 L1338.55888,234.942857 C1338.58743,234.657143 1338.61598,234.342857 1338.61598,234 C1338.61598,233.657143 1338.58743,233.342857 1338.55888,233.057143 L1341.27125,231 C1342.01358,230.428571 1342.21344,229.428571 1341.72807,228.571429 L1338.70164,223.457143 C1338.35902,222.857143 1337.70234,222.485714 1337.01711,222.485714 C1336.7887,222.485714 1336.58884,222.514286 1336.36043,222.6 L1333.13414,223.857143 C1332.59166,223.485714 1332.02064,223.171429 1331.44961,222.914286 L1330.96424,219.628571 C1330.82149,218.685714 1330.02205,218 1329.05131,218 Z M1325.99632,229.428571 C1328.50883,229.428571 1330.56452,231.485714 1330.56452,234 C1330.56452,236.514286 1328.50883,238.571429 1325.99632,238.571429 C1323.48381,238.571429 1321.42812,236.514286 1321.42812,234 C1321.42812,231.485714 1323.48381,229.428571 1325.99632,229.428571 M1325.99632,227.142857 C1322.22756,227.142857 1319.14402,230.228571 1319.14402,234 C1319.14402,237.771429 1322.22756,240.857143 1325.99632,240.857143 C1329.76509,240.857143 1332.84863,237.771429 1332.84863,234 C1332.84863,230.228571 1329.76509,227.142857 1325.99632,227.142857 Z" id="形状"></path>
        </g>
    </g>
</svg>