<?xml version="1.0" encoding="UTF-8"?>
<svg width="20px" height="28px" viewBox="0 0 20 28" version="1.1" xmlns="http://www.w3.org/2000/svg" xmlns:xlink="http://www.w3.org/1999/xlink">
    <title>编组</title>
    <g id="网站深色版" stroke="none" stroke-width="1" fill="none" fill-rule="evenodd">
        <g id="24查看已购买订单-已开奖未中奖" transform="translate(-1509.000000, -173.000000)" fill="#F7B62D" fill-rule="nonzero">
            <g id="编组" transform="translate(1509.000000, 173.000000)">
                <path d="M16.4352057,20.8684762 C15.4991245,20.8684762 14.6541914,21.2371739 14.0181045,21.827393 L6.23333183,15.899808 C6.78418021,15.2721104 7.1292683,14.4588264 7.1292683,13.5580054 C7.1292683,12.6757926 6.79687284,11.8787288 6.26628608,11.2561856 L13.583644,5.68585377 C14.2334425,6.55860237 15.2637577,7.13152383 16.4352057,7.13152383 C18.4039894,7.13152383 20,5.53503745 20,3.56571823 C20,1.59648637 18.4040186,0 16.4352057,0 C14.4665094,0 12.8705279,1.59648637 12.8705279,3.56571823 C12.8705279,3.97934923 12.9547476,4.37023694 13.0842648,4.73966266 L5.45651975,10.546251 C4.90715605,10.2002093 4.26178253,9.9921998 3.56467782,9.9921998 C1.59589411,9.9921998 0,11.5886862 0,13.5580054 C0,15.5272373 1.59589411,17.1237236 3.56467782,17.1237236 C4.2415209,17.1237236 4.86756437,16.9244504 5.40653525,16.5967547 L13.3630077,22.6550045 C13.0580353,23.1805174 12.8705279,23.782909 12.8705279,24.4341944 C12.8705279,26.403601 14.4665094,28 16.4352057,28 C18.4039894,28 20,26.403601 20,24.4341944 C20,22.4649625 18.4040186,20.8684762 16.4352057,20.8684762 Z" id="路径"></path>
            </g>
        </g>
    </g>
</svg>