<?xml version="1.0" encoding="UTF-8"?>
<svg width="24px" height="25px" viewBox="0 0 24 25" version="1.1" xmlns="http://www.w3.org/2000/svg" xmlns:xlink="http://www.w3.org/1999/xlink">
    <title>编组 12</title>
    <g id="网站深色版" stroke="none" stroke-width="1" fill="none" fill-rule="evenodd">
        <g id="3-nfts" transform="translate(-1779.000000, -28.000000)" fill="#B4B4B4" fill-rule="nonzero" stroke="#B4B4B4" stroke-width="0.55">
            <g id="编组-8" transform="translate(1780.000000, 29.000000)">
                <g id="编组">
                    <path d="M13.6190476,12.0227273 C18.2479524,12.0227273 22,15.7670227 22,20.3863636 L22,20.9090909 C22,22.0638681 21.06193,23 19.9047619,23 L2.0952381,23 C0.938070048,23 0,22.0638681 0,20.9090909 L0,20.3863636 C0,15.7670227 3.75204762,12.0227273 8.38095238,12.0227273 L13.6190476,12.0227273 L13.6190476,12.0227273 Z M13.6190476,13.5909091 L8.38095238,13.5909091 C4.67395238,13.5909091 1.65890476,16.5469318 1.57352381,20.2258864 L1.57142857,20.3863636 L1.57142857,20.9090909 C1.57142857,21.1741005 1.77021801,21.397153 2.03395238,21.4281591 L2.0952381,21.4318182 L19.9047619,21.4318182 C20.1703201,21.4318182 20.3938344,21.2334395 20.4249048,20.97025 L20.4285714,20.9090909 L20.4285714,20.3863636 C20.4285714,16.6870227 17.4664286,13.6782045 13.7798571,13.593 L13.6190476,13.5909091 Z M11,0 C13.893,0 16.2380952,2.34025 16.2380952,5.22727273 C16.2380952,8.11429545 13.893,10.4545455 11,10.4545455 C8.107,10.4545455 5.76190476,8.11429545 5.76190476,5.22727273 C5.76190476,2.34025 8.107,0 11,0 Z M11,1.56818182 C8.97495592,1.56818182 7.33333333,3.20641262 7.33333333,5.22727273 C7.33333333,7.24813283 8.97495592,8.88636364 11,8.88636364 C13.0250441,8.88636364 14.6666667,7.24813283 14.6666667,5.22727273 C14.6666667,3.20641262 13.0250441,1.56818182 11,1.56818182 Z" id="形状"></path>
                </g>
                <g id="编组">
                    <path d="M13.6190476,12.0227273 C18.2479524,12.0227273 22,15.7670227 22,20.3863636 L22,20.9090909 C22,22.0638681 21.06193,23 19.9047619,23 L2.0952381,23 C0.938070048,23 0,22.0638681 0,20.9090909 L0,20.3863636 C0,15.7670227 3.75204762,12.0227273 8.38095238,12.0227273 L13.6190476,12.0227273 L13.6190476,12.0227273 Z M13.6190476,13.5909091 L8.38095238,13.5909091 C4.67395238,13.5909091 1.65890476,16.5469318 1.57352381,20.2258864 L1.57142857,20.3863636 L1.57142857,20.9090909 C1.57142857,21.1741005 1.77021801,21.397153 2.03395238,21.4281591 L2.0952381,21.4318182 L19.9047619,21.4318182 C20.1703201,21.4318182 20.3938344,21.2334395 20.4249048,20.97025 L20.4285714,20.9090909 L20.4285714,20.3863636 C20.4285714,16.6870227 17.4664286,13.6782045 13.7798571,13.593 L13.6190476,13.5909091 Z M11,0 C13.893,0 16.2380952,2.34025 16.2380952,5.22727273 C16.2380952,8.11429545 13.893,10.4545455 11,10.4545455 C8.107,10.4545455 5.76190476,8.11429545 5.76190476,5.22727273 C5.76190476,2.34025 8.107,0 11,0 Z M11,1.56818182 C8.97495592,1.56818182 7.33333333,3.20641262 7.33333333,5.22727273 C7.33333333,7.24813283 8.97495592,8.88636364 11,8.88636364 C13.0250441,8.88636364 14.6666667,7.24813283 14.6666667,5.22727273 C14.6666667,3.20641262 13.0250441,1.56818182 11,1.56818182 Z" id="形状"></path>
                </g>
            </g>
        </g>
    </g>
</svg>