<?xml version="1.0" encoding="UTF-8"?>
<svg width="26px" height="24px" viewBox="0 0 26 24" version="1.1" xmlns="http://www.w3.org/2000/svg" xmlns:xlink="http://www.w3.org/1999/xlink">
    <title>编组 13</title>
    <g id="网站深色版" stroke="none" stroke-width="1" fill="none" fill-rule="evenodd">
        <g id="3-nfts" transform="translate(-1848.000000, -28.000000)" fill="#B4B4B4" fill-rule="nonzero">
            <g id="编组-9" transform="translate(1848.000000, 28.000000)">
                <g id="钱包">
                    <path d="M17.9955455,2.00703679 L10.9418636,6.11506859 L7.39640909,6.11506859 L17.6215,0.159584955 C17.8930103,0.00153423055 18.2156378,-0.0412194559 18.5183961,0.0407308026 C18.8211545,0.122681061 19.0792387,0.322621069 19.2358637,0.596558898 L22.3936818,6.11506859 L24.8181818,6.11566475 C25.470882,6.11566477 26,6.64947073 26,7.30795375 L26,22.807711 C26,23.466194 25.470882,24 24.8181818,24 L1.18181816,24 C0.529118011,24 0,23.466194 0,22.807711 L0,7.30795375 C0,6.64947073 0.529118021,6.11566477 1.18181816,6.11566475 L20.3467727,6.11566475 L17.9955455,2.00703679 Z M24.2272727,7.90409828 L1.77272727,7.90409828 L1.77272727,11.4809653 L7.0909091,11.4809653 C8.35757802,11.4809653 9.52802839,12.1627123 10.1613629,13.2693988 C10.7946973,14.3760854 10.7946973,15.7395794 10.1613629,16.8462659 C9.52802839,17.9529525 8.35757802,18.6346995 7.0909091,18.6346994 L1.77272727,18.6346994 L1.77272727,22.2115665 L24.2272727,22.2115665 L24.2272727,7.90409828 Z M7.0909091,13.2693989 L1.77272727,13.2693989 L1.77272727,16.8462667 L7.0909091,16.8462667 C8.0503651,16.8471989 8.83642628,16.0778554 8.86458167,15.1103151 C8.89273706,14.1427747 8.15276689,13.3282333 7.19490908,13.2723796 L7.0909091,13.2693989 L7.0909091,13.2693989 Z M21.5681818,13.2693989 C22.0577069,13.2693989 22.4545455,13.6697533 22.4545455,14.1636156 L22.4545455,15.9520491 C22.4545455,16.4459114 22.0577069,16.8462659 21.5681818,16.8462659 C21.0786567,16.8462659 20.6818182,16.4459114 20.6818182,15.9520491 L20.6818182,14.1636156 C20.6818182,13.6697533 21.0786567,13.2693989 21.5681818,13.2693989 Z" id="形状"></path>
                </g>
                <g id="钱包">
                    <path d="M17.9955455,2.00703679 L10.9418636,6.11506859 L7.39640909,6.11506859 L17.6215,0.159584955 C17.8930103,0.00153423055 18.2156378,-0.0412194559 18.5183961,0.0407308026 C18.8211545,0.122681061 19.0792387,0.322621069 19.2358637,0.596558898 L22.3936818,6.11506859 L24.8181818,6.11566475 C25.470882,6.11566477 26,6.64947073 26,7.30795375 L26,22.807711 C26,23.466194 25.470882,24 24.8181818,24 L1.18181816,24 C0.529118011,24 0,23.466194 0,22.807711 L0,7.30795375 C0,6.64947073 0.529118021,6.11566477 1.18181816,6.11566475 L20.3467727,6.11566475 L17.9955455,2.00703679 Z M24.2272727,7.90409828 L1.77272727,7.90409828 L1.77272727,11.4809653 L7.0909091,11.4809653 C8.35757802,11.4809653 9.52802839,12.1627123 10.1613629,13.2693988 C10.7946973,14.3760854 10.7946973,15.7395794 10.1613629,16.8462659 C9.52802839,17.9529525 8.35757802,18.6346995 7.0909091,18.6346994 L1.77272727,18.6346994 L1.77272727,22.2115665 L24.2272727,22.2115665 L24.2272727,7.90409828 Z M7.0909091,13.2693989 L1.77272727,13.2693989 L1.77272727,16.8462667 L7.0909091,16.8462667 C8.0503651,16.8471989 8.83642628,16.0778554 8.86458167,15.1103151 C8.89273706,14.1427747 8.15276689,13.3282333 7.19490908,13.2723796 L7.0909091,13.2693989 L7.0909091,13.2693989 Z M21.5681818,13.2693989 C22.0577069,13.2693989 22.4545455,13.6697533 22.4545455,14.1636156 L22.4545455,15.9520491 C22.4545455,16.4459114 22.0577069,16.8462659 21.5681818,16.8462659 C21.0786567,16.8462659 20.6818182,16.4459114 20.6818182,15.9520491 L20.6818182,14.1636156 C20.6818182,13.6697533 21.0786567,13.2693989 21.5681818,13.2693989 Z" id="形状"></path>
                </g>
            </g>
        </g>
    </g>
</svg>