<?xml version="1.0" encoding="UTF-8"?>
<svg width="30px" height="30px" viewBox="0 0 30 30" version="1.1" xmlns="http://www.w3.org/2000/svg" xmlns:xlink="http://www.w3.org/1999/xlink">
    <title>编组 2</title>
    <g id="控件" stroke="none" stroke-width="1" fill="none" fill-rule="evenodd">
        <g id="编组-6" transform="translate(-1835.000000, -37.000000)" fill="#B3B3B3">
            <g id="编组-2" transform="translate(1836.000000, 38.000000)">
                <path d="M23.1759946,4.92611525 C23.157114,4.85734994 23.157114,4.78858464 23.1256462,4.71981934 L22.4805574,3.34451328 C21.8228815,1.94732736 20.6554282,0.884590865 19.1858845,0.353222616 C17.7194875,-0.175019936 16.1366599,-0.109380329 14.7269049,0.540764351 L6.91975725,4.16031983 C6.62396044,4.29785044 6.41627332,4.54165469 6.31557653,4.82296729 L5.83412003,4.82296729 C2.61811643,4.82296729 0,7.42354601 0,10.6180069 L0,22.2049604 C0,25.3994213 2.61811643,28 5.83412003,28 L22.16588,28 C25.3818836,28 28,25.3994213 28,22.2049604 L28,10.6148812 C27.9968532,7.76737253 25.9105417,5.40434667 23.1759946,4.92611525 Z M15.7149921,2.64435747 C16.5583277,2.25364553 17.5055069,2.21613718 18.3897505,2.53495813 C19.2708474,2.85377908 19.9725781,3.49142098 20.3659249,4.3259817 L20.5987862,4.82296729 L11.0105642,4.82296729 L15.7149921,2.64435747 Z M25.6650933,19.88882 L20.630254,19.88882 C18.7012812,19.88882 17.1310407,18.3290979 17.1310407,16.4130465 C17.1310407,14.4969951 18.7012812,12.937273 20.630254,12.937273 L25.6650933,12.937273 L25.6650933,19.88882 L25.6650933,19.88882 Z M20.630254,10.6180069 C17.4142504,10.6180069 14.796134,13.2185856 14.796134,16.4130465 C14.796134,19.6075074 17.4142504,22.2080861 20.630254,22.2080861 L25.6650933,22.2080861 C25.6650933,24.1241375 24.0948528,25.6838596 22.16588,25.6838596 L5.83412003,25.6838596 C3.90514722,25.6838596 2.33490672,24.1241375 2.33490672,22.2080861 L2.33490672,10.6180069 C2.33490672,8.7019555 3.90514722,7.14223341 5.83412003,7.14223341 L22.16588,7.14223341 C24.0948528,7.14223341 25.6650933,8.7019555 25.6650933,10.6180069 L20.630254,10.6180069 Z" id="形状结合" stroke="#B4B4B4" stroke-width="0.5" fill-rule="nonzero"></path>
                <circle id="椭圆形" cx="21.5" cy="16.5" r="1.5"></circle>
            </g>
        </g>
    </g>
</svg>