<svg width="25" height="31" xmlns="http://www.w3.org/2000/svg" xmlns:xlink="http://www.w3.org/1999/xlink"><defs><path d="M15.953 8.746c2.258 1.216 3.052 3.567 4.16 5.664.16.303.325.62.327.96.002.338-.155.656-.31.96-.46.907-.646 1.814-1.107 2.721-.229.452.07.927-.377 1.191-.28.166-.35.241-.578.47-.185.186-.535.445-.597.695-.143.576-.341 1.136-.49 1.71-.07.265-.106 1.657-.383 1.758-.1.036-.21.008-.316.005-.314-.01-.68.454-.761.73-.095.324-.023.667.016 1a5.062 5.062 0 01-.851 3.417c-.238.347-.55.084-.713.534a.923.923 0 01-.213.335c-.07.072-.177.134-.266.089a.238.238 0 01-.099-.116c-.153-.32-.03-.84-.033-1.19-.006-.475-.024-.95-.042-1.425-.015-.405-.03-.81-.038-1.216-.012-.632.076-1.23.168-1.863.06-.403.12-1.297.157-1.84l.012-.185.11-1.621c.11.016.223.024.338.024.278 0 .566-.048.85-.144.569-.196 1.02-.542 1.433-.882.74-.61 1.489-1.296 1.953-2.182a4.3 4.3 0 00.488-1.996c0-.382-.092-.729-.151-1.1-.078-.492-.077-.75-.367-1.17a5.995 5.995 0 00-.861-.999c-.375-.346-.827-.658-1.347-.7-.625-.05-1.202.292-1.725.622-.582.366-1.264.682-1.596 1.295l-.009.016a1.572 1.572 0 00-.114.306.68.68 0 00.012.345l-.089 1.322-.089 1.322-.151 2.253c-.045.666-.118 1.477-.335 2.108-.09.265-.225.54-.16.811.025.101.076.195.11.293.071.215.056 1.05.04 1.275-.062.904-.227 1.814-.21 2.716.009.485-.006.96-.017 1.438-.014.615.12 1.186-.02 1.803-.044.197-.123.408-.298.503-.603.325-1.068-3.217-1.167-3.645-.017-.072-.045-.156-.12-.178-.124-.037-.198.13-.21.255-.047.468-.429 3.292-1.188 2.045-.355-.584-.339-1.746-.516-2.42a26.66 26.66 0 00-.687-2.215c-.101-.284-.218-1.184-.458-1.377-.274-.22-.678-.28-.898-.549-.293-.36-.159-.977-.558-1.227-.395-.247-.413.098-.835-.103-.32-.153-.408-.544-.457-.882L3.4 14.264c-.039-.266-.076-.548.032-.796.14-.32.483-.507.793-.688A9.41 9.41 0 006.8 10.584c.377-.465.71-.968 1.162-1.367.452-.4 1.059-.69 1.67-.61.685.09 1.257.624 1.949.638.408.009.772-.163 1.134-.358l.362-.198c.182-.097.367-.187.56-.25.76-.251 1.617-.07 2.316.307zm-8.515 4.786c-1.088.232-2.135 1.4-2.564 2.346-.355.782-.344 1.729.029 2.595.299.698.82 1.343 1.547 1.917.583.46 1.142.739 1.712.854.188.037.376.055.561.055.61 0 1.184-.2 1.6-.576.536-.482.707-1.142.79-1.596A6.453 6.453 0 0011 16.362c-.213-.822-.757-1.406-.979-2.22-.047-.174-.14-.392-.328-.382a.363.363 0 00-.14.043c-.205.101-.43.252-.644.171-.105-.04-.18-.129-.263-.202-.316-.275-.791-.33-1.21-.24zm7.473 1.031c.76-.163 1.293-.142 1.629.064.31.191.485.561.576.837.241.731.174 1.543-.185 2.229-.325.619-.868 1.138-1.583 1.727-.316.26-.627.503-.95.614-.209.07-.426.07-.57.008l.348-5.18c.108-.1.35-.216.735-.299zm-7.384.62c.077 0 .18.012.308.035.98.18 1.254.34 1.465.853.362.884.47 1.88.302 2.807-.07.39-.18.645-.331.783-.172.155-.484.216-.793.153-.32-.065-.664-.244-1.05-.55-.531-.419-.903-.871-1.107-1.345-.214-.498-.23-1.044-.04-1.461.157-.345.454-.65.827-1.015.092-.09.219-.213.295-.243a.346.346 0 01.124-.017zM7.047 0c.04 0 .082.002.114.026.034.027.046.075.047.119.003.15-.097.287-.218.374-.121.087-.264.136-.399.198-1.056.484-1.764 1.658-2.078 2.746-.394 1.367-.348 2.817-.153 4.223.061.445.155.922.491 1.237.412.385 1.342.084 1.574.32.377.383-.599.96-.816 1.14a31.673 31.673 0 00-3.197 3.062c-.13.143-.293.3-.49.274a.556.556 0 01-.22-.096c-.939-.602-1.477-1.66-1.639-2.727-.162-1.068.011-2.156.244-3.212.386-1.755.955-3.513 2.065-4.96A7.044 7.044 0 014.418.913C5.188.47 6.15-.003 7.048 0zM22.5 2.78c1.04 1.28 1.576 2.86 2.06 4.413.344 1.104.67 2.31.224 3.381-.516 1.24-1.894 1.913-3.17 2.46-.148.062-.305.127-.465.107-.233-.03-.398-.225-.535-.407-.371-.493-1.948-2.292-1.615-2.89.17-.307.945-.37 1.241-.522a2.342 2.342 0 001.005-.947c.64-1.18.1-2.603-.445-3.825-.43-.967-.884-1.965-1.696-2.675a6.089 6.089 0 00-.13-.11l-.269-.22c-.265-.224-.507-.464-.593-.784 1.687-.2 3.346.74 4.388 2.02z" id="a"/></defs><g fill="none" fill-rule="evenodd"><use fill="#7706F6" xlink:href="#a"/></g></svg>