<?xml version="1.0" encoding="UTF-8"?>
<svg width="32px" height="38px" viewBox="0 0 32 38" version="1.1" xmlns="http://www.w3.org/2000/svg" xmlns:xlink="http://www.w3.org/1999/xlink">
    <title>最高级</title>
    <defs>
        <path d="M20.420015,10.7207692 C22.5873836,11.8389927 23.701025,13.7394399 24.7207024,15.7041358 L25.010311,16.2666055 C25.2509026,16.7357535 25.4913492,17.2046674 25.7446052,17.6636563 C25.9500035,18.0354354 26.1601009,18.4245307 26.1630545,18.8411543 C26.1661643,19.2552618 25.9642525,19.6445051 25.7665851,20.0173203 C25.1770693,21.1294018 24.9392318,22.2413352 24.349716,23.3534167 C24.0567013,23.9064974 24.4386966,24.4887344 23.8670679,24.8130051 C23.5085684,25.0165068 23.4177687,25.1082676 23.1276341,25.388138 C22.8907061,25.6168 22.4424679,25.9348547 22.3630372,26.2410693 C22.1797704,26.9467393 21.9260164,27.6328731 21.7348671,28.3364711 C21.6464928,28.6620739 21.5998045,30.3683804 21.2450945,30.4919614 C21.1171564,30.5365098 20.9766367,30.5015815 20.8409678,30.4975855 C20.43866,30.4858934 19.9705642,31.0551062 19.8668797,31.3928451 C19.7454598,31.7894885 19.8377753,32.2101081 19.8876469,32.6193316 C20.0646987,34.0738879 19.6723956,35.5805408 18.7974444,36.8068792 C18.493364,37.2331228 18.0948459,36.9098881 17.885658,37.4614888 C17.827146,37.6158541 17.7333146,37.7574913 17.6131074,37.8729323 C17.5220045,37.960401 17.3867903,38.0363257 17.2720401,37.9814172 C17.2133766,37.9532969 17.1748739,37.8967605 17.1460726,37.839336 C16.9493147,37.4481687 17.1078731,36.8093952 17.1030224,36.3810796 C17.096201,35.7985466 17.0728569,35.2163097 17.0499675,34.6343687 C17.0302613,34.1369365 17.0102521,33.6403922 17.0007022,33.143848 C16.9853921,32.3687654 17.0978685,31.6360112 17.2165599,30.8601886 C17.2933682,30.3596187 17.3723867,29.2428604 17.4185849,28.5802114 L17.4327207,28.3776155 L17.5721793,26.3902545 C17.7137601,26.4099387 17.8585242,26.4201508 18.0054105,26.4201508 C18.3619395,26.4201508 18.7302921,26.3612463 19.093794,26.2426973 C19.8217073,26.0032312 20.3983383,25.5783196 20.9279778,25.1621401 C21.8750836,24.4148817 22.8335584,23.5737906 23.4273186,22.4876093 C23.8409952,21.7308789 24.0532149,20.8859397 24.0518506,20.0405565 C24.0513958,19.5725765 23.9343719,19.1475169 23.8588823,18.691673 C23.7591391,18.0888639 23.7603518,17.7724372 23.3895738,17.2584288 C23.0703348,16.815461 22.7039528,16.4035735 22.2867897,16.0340144 C21.8074765,15.6095468 21.2285717,15.2274075 20.5631116,15.1756071 C19.7633469,15.1134466 19.0252773,15.5339181 18.3555729,15.9373696 C17.6099241,16.3865534 16.7372467,16.7738727 16.3117464,17.5248311 C16.3079567,17.5316391 16.3050766,17.5385952 16.3014385,17.5454033 C16.2361052,17.6743124 16.1847178,17.8011494 16.1542491,17.9201425 C16.1169591,18.0657757 16.131966,18.2072649 16.1701656,18.342686 L16.0564007,19.9630408 L16.0564007,19.9630408 L15.9426358,21.5836176 L15.748758,24.3459131 C15.6914587,25.1621401 15.5977789,26.1562645 15.3205292,26.9300151 C15.2039599,27.2550259 15.0323652,27.5909888 15.116192,27.9241396 C15.1474186,28.0481646 15.2129035,28.1625696 15.2553474,28.2836347 C15.3473598,28.5461889 15.3285632,29.5703576 15.3087055,29.8454919 C15.2286684,30.9541694 15.0167519,32.0692109 15.0384286,33.1756683 C15.0499491,33.7691533 15.0306978,34.3522783 15.0170551,34.9374753 C14.9996228,35.6915417 15.1707627,36.3920317 14.9924983,37.1483181 C14.9355021,37.3900042 14.8340915,37.6482664 14.6095934,37.7644473 C13.8384783,38.1634587 13.2427475,33.8211018 13.1155673,33.2967333 C13.0940422,33.2082286 13.0584196,33.1052197 12.9636787,33.0782835 C12.8034529,33.0328471 12.708712,33.2381248 12.6930987,33.3905661 C12.6339804,33.964663 12.1448142,37.4267085 11.1733031,35.8977075 C10.7188499,35.1824174 10.7393139,33.7574612 10.5125421,32.9316142 C10.2612135,32.0159304 9.96789563,31.1097187 9.63364973,30.2163831 C9.50343784,29.8685801 9.35458093,28.7644907 9.04655932,28.5276887 C8.69594219,28.2583264 8.17903584,28.1853618 7.89784484,27.855171 C7.5223677,27.4142753 7.69426559,26.6579888 7.18311949,26.3511822 C6.67788521,26.0480756 6.65499581,26.4718032 6.11444212,26.2246411 C5.74499809,26.0557421 5.61805286,25.6513967 5.54994582,25.2696849 L5.52917073,25.1436399 L4.35332246,17.4854628 C4.30329927,17.158824 4.25539827,16.813685 4.39379578,16.5092464 C4.57251501,16.1164511 5.01211279,15.8879372 5.40972141,15.6663793 C6.67515667,14.9617453 7.79779845,14.0441375 8.70443098,12.9736444 C9.18677585,12.4041355 9.61288253,11.7874143 10.191181,11.2981221 C10.7694794,10.8088299 11.5468096,10.4521469 12.328081,10.5501237 C13.2054575,10.6602367 13.9379183,11.3157342 14.8233289,11.3330504 C15.7822584,11.3518465 16.548826,10.6293044 17.4554585,10.343514 C18.4275759,10.0368554 19.5245998,10.2588572 20.420015,10.7207692 Z M9.52056699,16.5872431 C8.12855788,16.8717015 6.78763307,18.3031697 6.2385906,19.4629076 C5.78413745,20.4223997 5.79778014,21.5822856 6.27542586,22.6444907 C6.65848227,23.4997899 7.32500346,24.2899687 8.25604124,24.9943067 C9.00184161,25.5575995 9.71793124,25.8997784 10.446754,26.0405276 C10.6882296,26.086852 10.9289473,26.1090521 11.1655722,26.1090521 C11.9471467,26.1090521 12.6806687,25.862334 13.2137947,25.4024941 C13.8994156,24.8112291 14.1186082,24.0028462 14.2241117,23.4457695 C14.4364829,22.3245119 14.3810026,21.160482 14.0814698,20.0566886 C13.8083128,19.0495401 13.1119293,18.33277 12.8283129,17.3353895 C12.7679819,17.1224157 12.6485326,16.8549774 12.4079665,16.8666695 C12.3447554,16.8696295 12.2851823,16.8939017 12.2289441,16.9203939 C11.9665497,17.043827 11.67975,17.2289766 11.4052288,17.1296677 C11.2701662,17.0809753 11.1749705,16.9718984 11.0677996,16.8823576 C10.6635212,16.5449147 10.0552088,16.4778702 9.52056699,16.5872431 Z M19.0863056,17.8517363 C20.0600905,17.6513426 20.7414671,17.6767988 21.170757,17.9297329 C21.5686688,18.1646109 21.7914994,18.6180868 21.9082202,18.9562697 C22.2173029,19.8522693 22.1310508,20.8477258 21.6715953,21.6879289 C21.2562512,22.4470274 20.5610804,23.0837288 19.6459591,23.8053829 C19.2407712,24.1235856 18.8424047,24.4213642 18.4299407,24.5573773 C18.162544,24.6444021 17.8839299,24.6427741 17.7002084,24.5672934 L17.7002084,24.5672934 L18.1458696,18.2174474 C18.2838123,18.0957903 18.5939561,17.9532651 19.0863056,17.8517363 Z M9.63466535,18.6117375 C9.73365065,18.6117375 9.86492364,18.6260937 10.0287875,18.6546579 C11.283157,18.8750318 11.6336226,19.0708374 11.9034447,19.7001388 C12.3677509,20.783212 12.5049357,22.0055544 12.2905939,23.1408721 C12.1999458,23.6183241 12.0612451,23.9319388 11.8664578,24.1006603 C11.6463557,24.2908419 11.2475345,24.3648425 10.8517449,24.2877338 C10.4420094,24.2079612 10.0022601,23.9884753 9.50748517,23.6144761 C8.82792764,23.1003197 8.35149459,22.545759 8.09122239,21.9655941 C7.81670116,21.3544969 7.7974498,20.6853832 8.03983493,20.1737428 C8.24038246,19.7511992 8.62086192,19.37646 9.09774972,18.9306803 C9.21583478,18.8201233 9.3780312,18.669014 9.47610698,18.6324577 C9.51309383,18.6181016 9.56630032,18.6117375 9.63466535,18.6117375 Z M9.0211536,2.01701465e-05 C9.07147996,0.000209138311 9.12559597,0.00257715847 9.16561452,0.0324734129 C9.20942272,0.0653296925 9.22458126,0.123346186 9.22579394,0.177218645 C9.23003834,0.362368221 9.10255498,0.529609644 8.94748307,0.636170551 C8.79225958,0.742731458 8.60959912,0.802375965 8.43648855,0.878448613 C7.08525592,1.47163766 6.17801706,2.91094991 5.77661881,4.24503327 C5.27214246,5.92099953 5.33065444,7.69790265 5.58016408,9.42108132 C5.65929168,9.96735397 5.778741,10.5513669 6.20969841,10.9373542 C6.73721575,11.4097742 7.92731305,11.0406591 8.22366259,11.3291136 C8.70706856,11.7996096 7.45770135,12.5066116 7.1792389,12.7286135 C5.72174488,13.8902754 4.35307993,15.14503 3.08749308,16.4810374 C2.92196178,16.6558269 2.71201594,16.8489685 2.46129362,16.8171483 C2.35806393,16.8039762 2.2657484,16.7526197 2.17919311,16.6994873 C0.976665805,15.961405 0.288013144,14.6652099 0.0809474314,13.3559908 C-0.126118282,12.0469197 0.0953480483,10.7135763 0.392758684,9.4190093 C0.886775638,7.268255 1.61590161,5.11232065 3.03671195,3.33822955 C3.75189207,2.44518995 4.64427556,1.68105944 5.65459253,1.12087468 C6.64004948,0.574454026 7.87137802,-0.00393489696 9.0211536,2.01701465e-05 Z M28.7981727,3.40820454 C30.1310634,4.9771659 30.8157749,6.91405838 31.4356078,8.81705858 C31.8764182,10.1705301 32.2928234,11.6495067 31.722559,12.9618339 C31.0622528,14.4813628 29.2974951,15.3063218 27.6640104,15.9763235 C27.4755897,16.0535802 27.2745874,16.1324648 27.0696439,16.1078966 C26.7713237,16.0720803 26.5594073,15.8329103 26.3841745,15.6095764 C25.9097121,15.0046952 23.8918067,12.8000685 24.3174586,12.0667222 C24.5358932,11.690503 25.5275652,11.6130984 25.9063772,11.4270608 C26.447234,11.1613985 26.9088117,10.7669752 27.1925797,10.2656949 C28.011141,8.8197226 27.3191535,7.07523175 26.6226184,5.576867 C26.0716053,4.39196892 25.4914878,3.1682945 24.4520665,2.2983431 C23.9619907,1.88808361 23.3465538,1.52118848 23.18269,0.932883476 C25.3409635,0.686905383 27.4651303,1.83939119 28.7981727,3.40820454 Z" id="path-1"></path>
    </defs>
    <g id="网站深色版" stroke="none" stroke-width="1" fill="none" fill-rule="evenodd">
        <g id="8我的空状态" transform="translate(-702.000000, -366.000000)">
            <g id="最高级" transform="translate(702.000000, 366.000000)">
                <mask id="mask-2" fill="white">
                    <use xlink:href="#path-1"></use>
                </mask>
                <use id="蒙版" fill="#7706F6" xlink:href="#path-1"></use>
                <path d="M16.1869168,-12.0000131 C20.631699,-14.2718814 22.6179589,-0.309509617 26.1039141,1.11738874 C27.2068466,1.56884964 33.6076088,1.7020516 31.8826899,8.80195493 C29.0443092,20.4849558 32.4105926,41.4081113 28.880152,42.102525 C3.49288426,47.0960279 -12.6709147,-7.6147634 -5.63995002,-7.6147634 C1.3910147,-7.6147634 11.7421346,-9.72814479 16.1869168,-12.0000131 Z" id="矩形" fill="#FFFFFF" opacity="0.219893683" mask="url(#mask-2)"></path>
            </g>
        </g>
    </g>
</svg>